<svg xmlns="http://www.w3.org/2000/svg" width="94" height="28" viewBox="0 0 94 28" fill="none" role="img" aria-label="Albuc">
  <title>Albuc</title>
  <g stroke="#18181b" stroke-width="2" stroke-linecap="round" stroke-linejoin="round">
    <rect width="18" height="18" x="3" y="5" rx="2" />
    <path d="M7 9v10" />
    <path d="M11 9v10" />
    <path d="m15 9 2 10" />
  </g>
  <path
    fill="#18181b"
    d="M32.53 22.12Q32.26 22.12 32.08 22.04Q31.90 21.95 31.90 21.74Q31.90 21.50 32.06 21.39Q32.22 21.28 32.48 21.21Q33.18 21.02 33.69 20.61Q34.21 20.20 34.47 19.60Q35.07 18.26 35.60 16.95Q36.13 15.64 36.63 14.36Q37.14 13.07 37.64 11.74Q38.14 10.41 38.65 9.04Q39.01 8.06 39.10 7.61Q39.20 7.17 39.25 7.10Q39.68 6.98 40.06 6.88Q40.45 6.78 40.88 6.62Q41.31 6.45 41.61 6.18Q41.91 5.92 42.06 5.78Q42.15 5.70 42.25 5.69Q42.34 5.68 42.44 5.85Q42.51 5.99 42.57 6.15Q42.63 6.30 42.68 6.50Q43.18 8.10 43.71 9.77Q44.24 11.44 44.78 13.10Q45.32 14.75 45.85 16.37Q46.38 17.99 46.88 19.53Q47.02 20.01 47.32 20.34Q47.62 20.68 48.01 20.87Q48.39 21.06 48.87 21.21Q49.14 21.28 49.29 21.39Q49.45 21.50 49.45 21.71Q49.45 21.88 49.30 21.98Q49.16 22.07 48.97 22.07Q48.49 22.07 47.78 22.04Q47.07 22 46.35 21.98Q45.63 21.95 45.08 21.95Q44.62 21.95 43.96 21.98Q43.30 22 42.63 22.02Q41.96 22.05 41.48 22.05Q41.26 22.05 41.11 21.96Q40.95 21.88 40.95 21.71Q40.95 21.50 41.12 21.38Q41.29 21.26 41.53 21.21Q42.42 21.02 42.82 20.70Q43.23 20.39 43.09 19.77Q42.99 19.31 42.85 18.81Q42.70 18.30 42.57 17.79Q42.44 17.27 42.30 16.79Q42.25 16.60 42.18 16.50Q42.10 16.41 41.89 16.41L37.64 16.41Q37.47 16.41 37.38 16.50Q37.28 16.60 37.23 16.82Q37.14 17.15 37.02 17.49Q36.90 17.82 36.79 18.16Q36.68 18.50 36.58 18.83Q36.49 19.17 36.39 19.48Q36.22 20.20 36.54 20.58Q36.85 20.97 37.88 21.21Q38.46 21.33 38.46 21.71Q38.46 21.88 38.32 21.96Q38.19 22.05 37.90 22.05Q37.21 22.05 36.61 22.01Q36.01 21.98 35.29 21.98Q34.57 21.98 33.92 22.05Q33.27 22.12 32.53 22.12M38.31 15.11L41.43 15.11Q41.79 15.11 41.79 14.94Q41.79 14.87 41.78 14.82Q41.77 14.78 41.74 14.70L40.14 9.28Q40.06 9.02 39.99 9.02Q39.94 9.02 39.82 9.28L37.93 14.70Q37.88 14.80 37.88 14.90Q37.88 15.02 38.01 15.06Q38.14 15.11 38.31 15.11M50.14 22.07Q49.93 22.07 49.80 21.99Q49.66 21.90 49.66 21.74Q49.66 21.54 49.81 21.44Q49.95 21.33 50.22 21.26Q50.58 21.14 50.85 20.99Q51.13 20.85 51.13 20.34L51.13 8.80Q51.13 8.15 50.95 7.67Q50.77 7.19 50.17 7.07Q49.93 7.02 49.93 6.71Q49.93 6.40 50.14 6.35Q50.77 6.23 51.49 6Q52.21 5.78 52.86 5.52Q53.50 5.27 53.86 5.15Q54.06 5.08 54.18 5.08Q54.32 5.08 54.37 5.16Q54.42 5.25 54.42 5.37Q54.42 5.54 54.36 5.99Q54.30 6.45 54.27 7.02L54.27 20.30Q54.27 20.82 54.55 20.96Q54.82 21.09 55.18 21.21Q55.45 21.30 55.59 21.40Q55.74 21.50 55.74 21.69Q55.74 21.86 55.60 21.94Q55.47 22.02 55.26 22.02Q54.80 22.02 54.36 22Q53.91 21.98 53.49 21.96Q53.07 21.95 52.64 21.95Q52.23 21.95 51.84 21.98Q51.44 22 51.03 22.04Q50.62 22.07 50.14 22.07M62.72 22.34Q62.02 22.34 61.44 22.22Q60.85 22.10 60.37 21.98Q60.01 21.86 59.71 21.78Q59.41 21.71 59.22 21.71Q58.98 21.71 58.76 21.80Q58.54 21.88 58.35 22.02Q58.14 22.19 58.02 22.19Q57.80 22.19 57.69 22.10Q57.58 22 57.58 21.88Q57.58 21.66 57.72 21.04Q57.85 20.42 57.82 19.48L57.73 8.80Q57.73 8.18 57.55 7.68Q57.37 7.19 56.79 7.07Q56.67 7.05 56.59 6.95Q56.50 6.86 56.50 6.69Q56.50 6.57 56.58 6.47Q56.65 6.38 56.77 6.35Q57.30 6.26 57.99 6.03Q58.69 5.80 59.35 5.55Q60.01 5.30 60.37 5.18Q60.61 5.08 60.70 5.08Q60.85 5.08 60.91 5.16Q60.97 5.25 60.97 5.37Q60.97 5.51 60.91 5.97Q60.85 6.42 60.85 6.88L60.85 12.02Q60.85 12.33 60.90 12.51Q60.94 12.69 61.06 12.69Q61.81 12.18 62.61 11.91Q63.42 11.63 64.14 11.63Q65.38 11.63 66.39 12.28Q67.40 12.93 67.99 14.06Q68.58 15.18 68.58 16.60Q68.58 18.28 67.83 19.59Q67.09 20.90 65.78 21.62Q64.47 22.34 62.72 22.34M63.15 21.33Q63.80 21.33 64.26 20.76Q64.71 20.20 64.96 19.26Q65.22 18.33 65.22 17.22Q65.22 16.26 64.96 15.28Q64.71 14.30 64.17 13.64Q63.63 12.98 62.79 12.98Q62.36 12.98 61.78 13.11Q61.21 13.24 60.85 13.53L60.85 18.64Q60.85 19.41 61.17 20.03Q61.50 20.66 62.02 20.99Q62.55 21.33 63.15 21.33M77.43 22.50Q77.24 22.50 77.24 22.26Q77.24 21.98 77.30 21.50Q77.36 21.02 77.36 20.75Q77.36 20.66 77.35 20.58Q77.34 20.51 77.31 20.49Q76.66 21.28 75.66 21.82Q74.65 22.36 73.52 22.36Q72.78 22.36 72.18 21.92Q71.58 21.47 71.23 20.70Q70.88 19.94 70.88 18.98L70.88 14.49Q70.88 13.94 70.68 13.60Q70.47 13.26 69.92 13.14Q69.78 13.12 69.67 13.01Q69.56 12.90 69.56 12.69Q69.56 12.52 69.66 12.41Q69.75 12.30 69.92 12.28Q70.93 12.23 71.74 12.08Q72.56 11.92 73.40 11.70Q73.52 11.68 73.65 11.64Q73.78 11.61 73.90 11.61Q74.24 11.61 74.22 11.94Q74.12 12.50 74.07 12.87Q74.02 13.24 74.02 13.79L74.02 18.40Q74.02 18.98 74.22 19.41Q74.41 19.84 74.74 20.08Q75.08 20.32 75.49 20.34Q75.87 20.34 76.24 20.25Q76.62 20.15 76.95 19.82Q77.10 19.70 77.26 19.32Q77.43 18.95 77.43 18.33L77.43 14.46Q77.43 14.03 77.26 13.76Q77.10 13.48 76.81 13.31Q76.52 13.14 76.14 13.12Q75.87 13.10 75.72 12.99Q75.56 12.88 75.56 12.59Q75.56 12.35 75.73 12.23Q75.90 12.11 76.14 12.11Q77.36 12.04 78.08 11.98Q78.80 11.92 79.26 11.85Q79.71 11.78 80.17 11.68Q80.24 11.66 80.34 11.63Q80.43 11.61 80.48 11.61Q80.84 11.61 80.84 11.90Q80.84 11.97 80.82 12.06Q80.79 12.16 80.74 12.26Q80.72 12.35 80.68 12.68Q80.65 13 80.61 13.36Q80.58 13.72 80.58 13.94L80.58 19.50Q80.58 20.06 80.71 20.24Q80.84 20.42 81.01 20.42Q81.13 20.42 81.37 20.43Q81.61 20.44 81.68 20.44Q81.90 20.44 82.02 20.56Q82.14 20.68 82.14 20.87Q82.14 21.09 82.05 21.22Q81.97 21.35 81.73 21.38Q80.58 21.47 79.65 21.77Q78.73 22.07 78.06 22.34Q77.91 22.38 77.74 22.44Q77.58 22.50 77.43 22.50M87.42 22.34Q86.14 22.34 85.12 21.65Q84.10 20.97 83.52 19.80Q82.93 18.64 82.93 17.18Q82.93 15.62 83.65 14.37Q84.37 13.12 85.58 12.38Q86.79 11.63 88.28 11.63Q90.25 11.63 91.54 12.93Q91.76 13.17 91.76 13.36Q91.76 13.50 91.54 13.78Q91.33 14.06 91.06 14.27Q90.80 14.49 90.61 14.49Q90.39 14.49 90.19 14.36Q89.98 14.22 89.79 14.06Q89.17 13.53 88.53 13.20Q87.90 12.88 87.44 12.88Q86.53 12.88 86.06 13.64Q85.59 14.39 85.59 16.10Q85.59 17.27 85.96 18.12Q86.34 18.98 87.03 19.43Q87.73 19.89 88.71 19.89Q89.43 19.89 89.96 19.66Q90.49 19.43 91.06 18.95Q91.18 18.88 91.27 18.81Q91.35 18.74 91.47 18.74Q91.76 18.74 91.76 19.12Q91.76 19.22 91.72 19.40Q91.69 19.58 91.57 19.79Q91.35 20.27 90.74 20.87Q90.13 21.47 89.29 21.90Q88.45 22.34 87.42 22.34"
  />
</svg>
